<svg xmlns="http://www.w3.org/2000/svg" fill-rule="evenodd" viewBox="0 0 100 100">
    <path d="m80.378 54.057-.042.001c-.061-.003-5.372.08-7.913-5.896-.707-1.666-.949-3.539-1.028-4.469a9.761 9.761 0 0 0 2.43-6.471c0-4.967-3.705-9.074-8.495-9.732v-9.411a1.5 1.5 0 0 0-1.5-1.5H14.426a1.5 1.5 0 0 0-1.5 1.5v63.844a1.5 1.5 0 0 0 1.5 1.5h49.403a1.5 1.5 0 0 0 1.5-1.5v-6.874H83.4a1.5 1.5 0 0 0 1.5-1.5v-6.225h.674a1.5 1.5 0 0 0 1.5-1.5v-5.069a6.704 6.704 0 0 0-6.696-6.698zm-9.554-16.836a6.789 6.789 0 0 1-2.024 4.853 1.5 1.5 0 0 0-.443 1.101c.004.134.093 3.305 1.305 6.16 3.262 7.67 10.165 7.712 10.729 7.722a3.702 3.702 0 0 1 3.684 3.697v3.569h-.369a1.524 1.524 0 0 0-.61 0H43.901v-3.569a3.7 3.7 0 0 1 3.655-3.697c.822.041 7.235.106 10.61-7.508 1.163-2.61 1.399-6.207 1.409-6.358a1.503 1.503 0 0 0-.434-1.152 6.784 6.784 0 0 1-1.986-4.817 6.841 6.841 0 0 1 6.833-6.834 6.841 6.841 0 0 1 6.836 6.833zm-8.495 43.201H15.926V19.578h46.403v7.96c-4.633.792-8.174 4.827-8.174 9.683a9.76 9.76 0 0 0 2.371 6.405c-.127 1.181-.455 3.252-1.102 4.704-2.647 5.975-7.514 5.746-7.712 5.731a1.526 1.526 0 0 0-.117-.005c-3.691 0-6.694 3.004-6.694 6.697v5.069a1.5 1.5 0 0 0 1.5 1.5h.831l.035 6.233a1.5 1.5 0 0 0 1.5 1.491h17.562v5.376zM81.9 72.048H46.259l-.026-4.725H81.9v4.725z"/>
    <path d="M37.887 30.107H21.285a1.5 1.5 0 1 0 0 3h16.602a1.5 1.5 0 1 0 0-3zm0 7.482H21.285a1.5 1.5 0 1 0 0 3h16.602a1.5 1.5 0 1 0 0-3z"/>
</svg>
