<?xml version="1.0" encoding="utf-8"?>
<!-- Generator: Adobe Illustrator 21.1.0, SVG Export Plug-In . SVG Version: 6.00 Build 0)  -->
<svg version="1.1" id="Слой_1" xmlns="http://www.w3.org/2000/svg" xmlns:xlink="http://www.w3.org/1999/xlink" x="0px" y="0px"
	 viewBox="0 0 200 200" style="enable-background:new 0 0 200 200;" xml:space="preserve">
<style type="text/css">
	.st0{fill:none;stroke:#000000;stroke-width:6;stroke-linejoin:round;stroke-miterlimit:10;}
</style>
<path class="st0" d="M194,115.2c0,0-40.9,42.7-91.3,42.7s-91.3-42.7-91.3-42.7s40.9-42.8,91.3-42.8S194,115.2,194,115.2z"/>
<path class="st0" d="M133.7,77.8c5.8,7,9.3,16,9.3,25.8c0,22.3-18.1,40.3-40.3,40.3s-40.3-18.1-40.3-40.3c0-9.8,3.5-18.8,9.3-25.8"
	/>
<circle class="st0" cx="91.6" cy="106.2" r="13.9"/>
<path class="st0" d="M11.4,84.8c0,0,40.9-42.7,91.3-42.7S194,84.8,194,84.8"/>
</svg>
