<svg xmlns="http://www.w3.org/2000/svg" fill-rule="evenodd" viewBox="0 0 100 100">
    <path d="M50.089 53.806c-20.727 0-37.589 16.861-37.589 37.587a1.5 1.5 0 0 0 1.5 1.5h58.901c.045.004.089.014.135.014s.09-.01.135-.014h12.997a1.5 1.5 0 0 0 1.5-1.5c.001-20.726-16.857-37.587-37.579-37.587zM28 64.809a34.57 34.57 0 0 1 11-6.171v14.755a1.5 1.5 0 0 0 1.5 1.5h19a1.5 1.5 0 0 0 1.5-1.5V58.58a34.542 34.542 0 0 1 10.536 5.702v25.611H28V64.809zm30-7.081v14.165H42V57.768a34.52 34.52 0 0 1 8.089-.962c2.722 0 5.369.325 7.911.922zm-33 9.88v22.285h-9.468c.37-8.613 3.904-16.42 9.468-22.285zm49.536 22.285V66.968c5.924 5.932 9.718 13.991 10.101 22.925H74.536zm-25.08-39.822c11.91 0 21.601-9.687 21.601-21.593 0-11.91-9.69-21.601-21.601-21.601s-21.602 9.69-21.602 21.601c0 11.906 9.691 21.593 21.602 21.593zm0-40.194c7.958 0 14.744 5.032 17.395 12.073-2.893-1.264-7.939-3.887-11.128-5.625a1.498 1.498 0 0 0-1.359-.038c-.074.035-7.457 3.526-12.258 5.526l-.456.191c-3.641 1.522-5.981 2.495-10.457 2.986 1.639-8.593 9.199-15.113 18.263-15.113zM30.877 28.04c5.33-.512 8-1.624 11.93-3.267l.455-.189c3.995-1.665 9.732-4.339 11.696-5.26 2.48 1.338 10.216 5.453 12.838 6.184.157.97.26 1.957.26 2.971 0 10.252-8.344 18.593-18.601 18.593s-18.602-8.341-18.602-18.593c.001-.149.02-.292.024-.439z"/>
</svg>
